<svg width="202" height="202" viewBox="0 0 202 202" fill="none" xmlns="http://www.w3.org/2000/svg">
<g clip-path="url(#clip0_7_3221)">
<path d="M101 0C45.2199 0 0 45.2199 0 101C0 156.78 45.2199 202 101 202C156.78 202 202 156.78 202 101C202 45.2199 156.78 0 101 0ZM122.129 136.981C121.701 137.82 121.017 138.502 120.177 138.928C119.689 139.183 119.122 139.239 118.594 139.085C118.066 138.931 117.617 138.579 117.343 138.102C116.134 136.068 115.57 133.716 115.728 131.355C116.154 126.642 119.487 121.128 118.946 121.592C111.109 128.368 99.8494 137.467 87.9552 144.954C72.4771 154.696 53.1678 160.164 43.0805 162.55C42.2033 162.757 41.2931 162.783 40.4056 162.625C39.5182 162.468 38.6723 162.131 37.9197 161.635C37.1671 161.139 36.5238 160.494 36.0292 159.741C35.5346 158.987 35.199 158.141 35.0432 157.253L34.6894 155.237C34.432 153.766 34.6522 152.251 35.3178 150.913C35.9833 149.576 37.0594 148.487 38.3885 147.805L121.988 104.976L122.513 83.1141L118.443 82.0529C117.453 81.7945 116.576 81.2151 115.951 80.4054C115.326 79.5956 114.986 78.6014 114.987 77.5782C114.987 77.5782 113.879 28.7275 114.526 22.6589C114.585 22.1141 114.754 21.5868 115.022 21.1092C115.291 20.6315 115.654 20.2136 116.089 19.8807C116.525 19.5478 117.023 19.307 117.554 19.1729C118.086 19.0388 118.639 19.0141 119.18 19.1005L119.806 19.2028C121.941 19.5425 123.89 20.6187 125.315 22.2447C126.739 23.8708 127.549 25.9442 127.605 28.1053L129.791 111.761C129.791 111.761 123.936 121.136 121.545 128.867C120.463 132.344 123.408 134.402 122.129 136.981Z" fill="black"/>
<path d="M127.465 66.4128C127.405 71.6631 127.277 76.9134 126.881 82.1807H126.71C126.203 76.939 125.964 71.6929 125.79 66.4426C125.705 63.8232 125.668 61.1995 125.679 58.5715L125.747 50.7003L125.807 34.9324L125.841 27.0654C125.882 25.7954 125.458 24.5541 124.648 23.5752C123.832 22.5648 122.816 21.7335 121.665 21.1333L121.737 20.9799C122.96 21.5241 124.055 22.3198 124.95 23.3152C125.4 23.8227 125.767 24.398 126.037 25.0199C126.166 25.3411 126.266 25.6734 126.335 26.0128C126.4 26.3487 126.435 26.6894 126.442 27.0313C126.544 29.6607 126.638 32.2816 126.706 34.9068L127.132 50.6491L127.375 58.5203C127.463 61.154 127.493 63.7848 127.465 66.4128Z" fill="black"/>
<path d="M44.9727 154.696C44.9727 155.354 44.7778 155.996 44.4125 156.543C44.0473 157.09 43.5281 157.516 42.9207 157.767C42.3133 158.019 41.645 158.085 41.0002 157.956C40.3554 157.828 39.7631 157.512 39.2982 157.047C38.8333 156.582 38.5167 155.99 38.3885 155.345C38.2602 154.7 38.3261 154.032 38.5776 153.424C38.8292 152.817 39.2553 152.298 39.8019 151.932C40.3486 151.567 40.9912 151.372 41.6487 151.372C42.5303 151.372 43.3757 151.722 43.9991 152.346C44.6225 152.969 44.9727 153.815 44.9727 154.696Z" fill="black"/>
</g>
<defs>
<clipPath id="clip0_7_3221">
<rect width="202" height="202" fill="white"/>
</clipPath>
</defs>
</svg>
