<svg width="466" height="121" viewBox="0 0 466 121" fill="none" xmlns="http://www.w3.org/2000/svg">
<g clip-path="url(#clip0_7_2)">
<path d="M116.5 31C100.208 31 87 44.2078 87 60.5C87 76.7922 100.208 90 116.5 90C132.792 90 146 76.7922 146 60.5C146 44.2078 132.792 31 116.5 31ZM122.671 71.0092C122.546 71.2544 122.347 71.4535 122.101 71.5781C121.959 71.6525 121.793 71.6689 121.639 71.6239C121.485 71.5789 121.354 71.4759 121.274 71.3366C120.92 70.7428 120.756 70.0556 120.802 69.3662C120.926 67.9895 121.9 66.3788 121.742 66.5145C119.452 68.4936 116.164 71.1511 112.69 73.3381C108.169 76.1835 102.529 77.7805 99.5829 78.4776C99.3267 78.538 99.0608 78.5454 98.8016 78.4994C98.5424 78.4535 98.2954 78.355 98.0756 78.2101C97.8558 78.0653 97.6679 77.877 97.5234 77.657C97.3789 77.4369 97.2809 77.1897 97.2354 76.9304L97.1321 76.3416C97.0569 75.9119 97.1212 75.4693 97.3156 75.0787C97.51 74.6881 97.8243 74.37 98.2125 74.1708L122.63 61.6613L122.783 55.2759L121.595 54.966C121.306 54.8905 121.05 54.7212 120.867 54.4847C120.684 54.2482 120.585 53.9578 120.585 53.659C120.585 53.659 120.262 39.3907 120.451 37.6182C120.468 37.4591 120.517 37.305 120.596 37.1655C120.674 37.026 120.78 36.904 120.907 36.8067C121.034 36.7095 121.18 36.6392 121.335 36.6C121.49 36.5608 121.652 36.5536 121.81 36.5789L121.993 36.6087C122.617 36.7079 123.186 37.0223 123.602 37.4972C124.018 37.9722 124.255 38.5778 124.271 39.209L124.909 63.6429C124.909 63.6429 123.199 66.3813 122.501 68.6393C122.185 69.655 123.045 70.2562 122.671 71.0092Z" fill="black"/>
<path d="M123.998 50.3624C123.988 51.9066 123.966 53.4508 123.898 55H123.868C123.781 53.4583 123.74 51.9154 123.71 50.3712C123.695 49.6008 123.689 48.8291 123.691 48.0562L123.703 45.7412L123.713 41.1036L123.719 38.7898C123.726 38.4163 123.653 38.0512 123.513 37.7633C123.373 37.4661 123.198 37.2216 123 37.0451L123.012 37C123.223 37.1601 123.411 37.3941 123.565 37.6869C123.643 37.8361 123.706 38.0053 123.753 38.1882C123.775 38.2827 123.792 38.3804 123.804 38.4803C123.815 38.579 123.821 38.6793 123.822 38.7798C123.84 39.5532 123.856 40.324 123.868 41.0961L123.941 45.7261L123.983 48.0412C123.998 48.8158 124.003 49.5895 123.998 50.3624Z" fill="black"/>
<path d="M100 76C100 76.1978 99.9414 76.3911 99.8315 76.5556C99.7216 76.72 99.5654 76.8482 99.3827 76.9239C99.2 76.9996 98.9989 77.0194 98.8049 76.9808C98.6109 76.9422 98.4327 76.847 98.2929 76.7071C98.153 76.5673 98.0578 76.3891 98.0192 76.1951C97.9806 76.0011 98.0004 75.8 98.0761 75.6173C98.1518 75.4346 98.28 75.2784 98.4444 75.1685C98.6089 75.0586 98.8022 75 99 75C99.2652 75 99.5196 75.1054 99.7071 75.2929C99.8946 75.4804 100 75.7348 100 76Z" fill="black"/>
</g>
<path d="M168.24 65.42V39.5H161.94V65.78C161.94 75.68 168.84 82.22 177.84 82.22C182.22 82.22 186.12 80.54 188.94 77.6V81.5H195.18V39.5H188.88V65.42C188.88 72.08 184.38 76.58 178.56 76.58C172.68 76.58 168.24 72.2 168.24 65.42ZM201.374 81.5H207.374V77.66C210.134 80.48 214.034 82.22 218.294 82.22C227.294 82.22 234.374 75.08 234.374 66.26C234.374 57.38 227.294 50.24 218.294 50.24C214.034 50.24 210.194 51.98 207.434 54.8V39.5H201.374V81.5ZM207.314 66.26C207.314 60.32 212.054 55.64 217.874 55.64C223.634 55.64 228.374 60.32 228.374 66.26C228.374 72.14 223.634 76.88 217.874 76.88C211.994 76.88 207.314 72.14 207.314 66.26ZM237.668 73.04C237.668 78.38 242.108 82.16 248.108 82.16C252.188 82.16 255.608 80.48 257.648 77.66C258.428 80.06 260.588 81.5 263.528 81.5H266.528V76.16H264.968C263.768 76.16 263.168 75.56 263.168 74.42V60.62C263.168 54.38 258.668 50.36 251.768 50.36C247.208 50.36 243.188 51.68 240.008 54.38L242.708 58.76C245.288 56.72 247.988 55.82 250.928 55.82C254.948 55.82 257.228 57.92 257.228 61.4V63.38L247.688 64.1C241.328 64.52 237.668 67.7 237.668 73.04ZM243.488 72.98C243.488 70.46 245.228 68.96 248.588 68.72L257.228 68V70.52C257.228 74.36 253.688 77.42 249.308 77.42C245.888 77.42 243.488 75.62 243.488 72.98ZM285.817 56.3V50.66H283.717C280.357 50.66 277.897 52.22 276.397 54.68V50.9H270.397V81.5H276.457V64.1C276.457 59.36 279.337 56.3 283.297 56.3H285.817ZM289.85 81.5H295.85V77.66C298.61 80.48 302.51 82.22 306.77 82.22C315.77 82.22 322.85 75.08 322.85 66.26C322.85 57.38 315.77 50.24 306.77 50.24C302.51 50.24 298.67 51.98 295.91 54.8V39.5H289.85V81.5ZM295.79 66.26C295.79 60.32 300.53 55.64 306.35 55.64C312.11 55.64 316.85 60.32 316.85 66.26C316.85 72.14 312.11 76.88 306.35 76.88C300.47 76.88 295.79 72.14 295.79 66.26ZM326.445 66.2C326.445 75.32 333.525 82.16 342.705 82.16C348.285 82.16 352.845 79.7 355.905 75.62L351.525 72.38C349.245 75.44 346.245 76.88 342.705 76.88C337.545 76.88 333.405 73.16 332.565 68.18H357.465V66.2C357.465 57.08 350.985 50.3 342.165 50.3C333.225 50.3 326.445 57.56 326.445 66.2ZM342.045 55.58C346.545 55.58 350.325 58.7 351.345 63.38H332.685C333.765 58.7 337.545 55.58 342.045 55.58ZM377.633 56.3V50.66H375.533C372.173 50.66 369.713 52.22 368.213 54.68V50.9H362.213V81.5H368.273V64.1C368.273 59.36 371.153 56.3 375.113 56.3H377.633Z" fill="black"/>
<defs>
<clipPath id="clip0_7_2">
<rect width="59" height="59" fill="white" transform="translate(87 31)"/>
</clipPath>
</defs>
</svg>
